{"title":"Shark Night 2011 R5 LiNE XviD -MiSTERE","uid":6809430,"size":1458383980,"categoryP":"video","categoryS":"movies","magnet":"?xt=urn:btih:f59e7b136149f001e2e79a275778a55d3377306a&amp;dn=Shark+Night+2011+R5+LiNE+XviD+-MiSTERE&amp;tr=udp%3A%2F%2Ftracker.openbittorrent.com%3A80&amp;tr=udp%3A%2F%2Fopen.demonii.com%3A1337&amp;tr=udp%3A%2F%2Ftracker.coppersurfer.tk%3A6969&amp;tr=udp%3A%2F%2Fexodus.desync.com%3A6969","seeders":0,"leechers":1,"uploader":"LegendET","files":4,"time":1320994477,"description":"[center]\n[img]http://i.imgur.com/TWfzg.jpg[/img]\n\n\n\nShark Night 2011 R5 LiNE XviD - MiSTERE\n &lt;a href=&quot;\nhttp://www.imdb.com/title/tt1633356/&quot; rel=&quot;nofollow&quot; target=&quot;_NEW&quot;&gt;\nhttp://www.imdb.com/title/tt1633356/&lt;/a&gt;\n\nsOURCE: Shark_Night_3D dvd5 RELiZLABS\n\nVideo\nID                               : 0\nFormat                           : MPEG-4 Visual\nFormat profile                   : Advanced Simple@L5\nFormat settings, BVOP            : 2\nFormat settings, QPel            : No\nFormat settings, GMC             : No warppoints\nFormat settings, Matrix          : Custom\nCodec ID                         : XVID\nCodec ID/Hint                    : XviD\nDuration                         : 1h 26mn\nBit rate                         : 1 806 Kbps\nWidth                            : 720 pixels\nHeight                           : 400 pixels\nDisplay aspect ratio             : 16:9\nFrame rate                       : 25.000 fps\nColor space                      : YUV\nChroma subsampling               : 4:2:0\nBit depth                        : 8 bits\nScan type                        : Progressive\nCompression mode                 : Lossy\nBits/(Pixel*Frame)               : 0.251\nStream size                      : 1.09 GiB (93%)\nWriting library                  : XviD 58\n\nAudio\nID                               : 1\nFormat                           : MPEG Audio\nFormat version                   : Version 1\nFormat profile                   : Layer 3\nMode                             : Joint stereo\nMode extension                   : MS Stereo\nCodec ID                         : 55\nCodec ID/Hint                    : MP3\nDuration                         : 1h 26mn\nBit rate mode                    : Constant\nBit rate                         : 128 Kbps\nChannel(s)                       : 2 channels\nSampling rate                    : 44.1 KHz\nCompression mode                 : Lossy\nStream size                      : 79.3 MiB (7%)\nAlignment                        : Split accross interleaves\nInterleave, duration             : 40 ms (1.00 video frame)\n\n\nCropped Resized Sharpened and Tweaked RGB\n\n\n[img]http://i.imgur.com/M6qDo.png[/img]\n[img]http://i.imgur.com/ImmHX.png[/img]\n[img]http://i.imgur.com/TW9OV.png[/img]\n[img]http://i.imgur.com/Q00Cm.png[/img]\n[img]http://i.imgur.com/CR8Dc.png[/img]\n[img]http://i.imgur.com/FXStR.png[/img]\n[img]http://i.imgur.com/b7Qzi.png[/img]\n\nGreetz to NOONE\nYOU ALL SUCK[/center]","torrent":{"xt":"urn:btih:f59e7b136149f001e2e79a275778a55d3377306a","amp;dn":"Shark+Night+2011+R5+LiNE+XviD+-MiSTERE","amp;tr":["udp%3A%2F%2Ftracker.openbittorrent.com%3A80","udp%3A%2F%2Fopen.demonii.com%3A1337","udp%3A%2F%2Ftracker.coppersurfer.tk%3A6969","udp%3A%2F%2Fexodus.desync.com%3A6969"],"infoHash":"f59e7b136149f001e2e79a275778a55d3377306a","infoHashBuffer":{"type":"Buffer","data":[245,158,123,19,97,73,240,1,226,231,154,39,87,120,165,93,51,119,48,106]},"announce":[],"urlList":[]}}